<?xml version="1.0" encoding="utf-8"?>
<!-- Generator: Adobe Illustrator 27.2.0, SVG Export Plug-In . SVG Version: 6.00 Build 0)  -->
<svg version="1.1" id="Ebene_1" xmlns="http://www.w3.org/2000/svg" xmlns:xlink="http://www.w3.org/1999/xlink" x="0px" y="0px"
	 viewBox="0 0 750.09 85.27" style="enable-background:new 0 0 750.09 85.27;" xml:space="preserve">
<style type="text/css">
	.st0{fill:#008ECF;}
</style>
<g>
	<g>
		<path class="st0" d="M741.36,23.4c0-5.08,1.01-8.15,6.76-8.34c0.62,0,1.34,0,1.97,0.24v-4.31c-0.53,0-1.01-0.05-1.58-0.05
			c-3.31,0-6.38,1.68-7.05,4.99h-0.1v-4.65h-4.55v24.07h4.55V23.4z M724.24,23.64c0,0.57-0.05,3.4-0.91,5.66
			c-0.96,2.49-3.5,3.45-5.37,3.45c-4.36,0-5.32-3.07-5.32-7.24V11.26h-4.55v16.11c0,4.84,2.88,8.68,7.91,8.68
			c3.36,0,6.43-1.25,8.25-4.27h0.09v3.55h4.46V11.26h-4.55V23.64z M716.04,0.72h-4.36v4.89h4.36V0.72z M725.06,0.72h-4.36v4.89h4.36
			V0.72z M698.54,35.34V14.43h5.56v-3.17h-5.56V7.43c-0.14-2.64,1.34-3.31,3.93-3.31c0.77,0,1.54,0.09,2.3,0.14V0.48
			c-1.1-0.19-2.16-0.48-3.26-0.48c-3.4,0-7.38,1.39-7.53,6.66v4.6h-4.7v3.17h4.7v20.91H698.54z M640.05,11.26h-4.46v24.07h4.56
			V22.97c0-0.57-0.19-3.74,0.34-4.99c1.39-3.21,4.08-3.93,5.95-3.93c4.36,0,5.32,2.88,5.32,7.05v14.24h4.55V22.97
			c0-0.57-0.14-2.97,0.48-5.18c0.86-2.97,3.93-3.74,5.32-3.74c5.32,0,5.8,3.74,5.8,7.05v14.24h4.55V18.36c0-4.32-3.4-7.81-8.97-7.81
			c-3.55,0-6.28,1.53-8.01,4.51c-1.25-2.97-3.93-4.51-8.49-4.51c-2.44,0-5.42,1.15-6.86,4.17h-0.1V11.26z M623.27,23.64
			c0,0.57-0.05,3.4-0.91,5.66c-0.96,2.49-3.5,3.45-5.37,3.45c-4.37,0-5.32-3.07-5.32-7.24V11.26h-4.56v16.11
			c0,4.84,2.88,8.68,7.91,8.68c3.36,0,6.42-1.25,8.25-4.27h0.1v3.55h4.46V11.26h-4.55V23.64z M594.16,5.66h5.42V0.72h-5.42V5.66z
			 M599.15,11.26h-4.56v24.07h4.56V11.26z M581.26,23.4c0-5.08,1.01-8.15,6.76-8.34c0.62,0,1.34,0,1.96,0.24v-4.31
			c-0.53,0-1-0.05-1.58-0.05c-3.31,0-6.38,1.68-7.05,4.99h-0.09v-4.65h-4.55v24.07h4.55V23.4z M553.55,21
			c0-3.93,2.25-7.15,6.04-7.15c4.41,0,6.23,3.12,6.14,7.15H553.55z M570.52,24.16v-2.25c0-6.66-3.4-11.22-10.6-11.36
			c-7.62,0-11.17,5.9-11.17,12.95c0,7.1,3.07,12.56,10.79,12.56c5.75,0,9.97-2.73,10.69-8.2h-4.79c-0.53,3.5-2.3,4.89-5.85,4.89
			c-4.65,0-6.38-4.36-6.04-8.58H570.52z M531.49,11.12v3.4l4.12-0.05v15.3c0,3.21,0.24,3.31,1.05,4.46
			c0.77,1.06,1.97,1.44,2.69,1.58c1.1,0.19,1.97,0.24,3.07,0.24c1.05,0,2.06-0.24,3.12-0.29v-3.5c-0.72,0.19-1.68,0.29-2.4,0.29
			c-1.63,0-2.97-0.82-2.97-2.54V14.48l5.56,0.05v-3.4l-5.56,0.14V4.7l-4.55,1.44v5.13L531.49,11.12z M510.35,17.83
			c0,9.4,14.62,5.37,14.62,10.74c0,3.12-2.73,4.17-5.42,4.17c-2.78,0-4.8-1.58-4.89-4.55h-4.79c-0.05,5.56,4.17,7.86,9.2,7.86
			c4.94,0,10.69-1.82,10.69-7.72c0-5.42-4.7-5.9-8.77-7.24c-1.73-0.53-5.85-0.72-5.85-3.4c0-2.69,1.97-3.84,4.41-3.84
			c2.64,0,4.99,1.01,4.79,4.08h4.79c0.34-5.47-4.79-7.38-9.35-7.38C515.43,10.55,510.35,12.8,510.35,17.83 M499.18,5.66h5.42V0.72
			h-5.42V5.66z M504.16,11.26h-4.55v24.07h4.55V11.26z M475.39,11.26h-4.46v24.07h4.56V22.25c0-4.7,1.25-5.75,1.92-6.42
			c1.92-1.92,4.41-1.78,4.41-1.78c3.84,0,5.51,2.16,5.51,6.14v15.15h4.56V18.7c0-7.72-7.43-8.15-9.11-8.15
			c-2.4,0-5.75,1.25-7.29,4.27h-0.1V11.26z M457.99,5.66h5.42V0.72h-5.42V5.66z M462.97,11.26h-4.55v24.07h4.55V11.26z
			 M418.14,11.26h-4.46v24.07h4.56V22.97c0-0.57-0.19-3.74,0.34-4.99c1.39-3.21,4.08-3.93,5.95-3.93c4.36,0,5.32,2.88,5.32,7.05
			v14.24h4.55V22.97c0-0.57-0.14-2.97,0.48-5.18c0.86-2.97,3.93-3.74,5.32-3.74c5.32,0,5.8,3.74,5.8,7.05v14.24h4.56V18.36
			c0-4.32-3.4-7.81-8.97-7.81c-3.55,0-6.28,1.53-8.01,4.51c-1.25-2.97-3.93-4.51-8.49-4.51c-2.45,0-5.42,1.15-6.86,4.17h-0.1V11.26z
			 M388.75,17.83c0,9.4,14.62,5.37,14.62,10.74c0,3.12-2.73,4.17-5.42,4.17c-2.78,0-4.8-1.58-4.89-4.55h-4.8
			c-0.05,5.56,4.17,7.86,9.21,7.86c4.94,0,10.69-1.82,10.69-7.72c0-5.42-4.7-5.9-8.77-7.24c-1.73-0.53-5.85-0.72-5.85-3.4
			c0-2.69,1.97-3.84,4.41-3.84c2.64,0,4.99,1.01,4.79,4.08h4.79c0.34-5.47-4.79-7.38-9.35-7.38
			C393.83,10.55,388.75,12.8,388.75,17.83 M371.39,11.12v3.4l4.12-0.05v15.3c0,3.21,0.24,3.31,1.05,4.46
			c0.77,1.06,1.96,1.44,2.69,1.58c1.1,0.19,1.96,0.24,3.07,0.24c1.05,0,2.06-0.24,3.12-0.29v-3.5c-0.72,0.19-1.68,0.29-2.4,0.29
			c-1.63,0-2.97-0.82-2.97-2.54V14.48l5.56,0.05v-3.4l-5.56,0.14V4.7l-4.55,1.44v5.13L371.39,11.12z M359.26,20.47
			c-5.71,0-11.7,1.97-11.7,8.73c0,4.7,4.22,6.85,8.39,6.85c3.31,0,5.99-1.29,7.48-4.31h0.09c0.05,1.1,0.14,2.16,0.24,3.26
			c0.05,0.58,0.86,0.34,1.3,0.34h3.07c-0.14-2.02-0.19-4.03-0.19-5.08V18.75c0-6.71-4.89-8.2-9.83-8.2c-4.75,0-8.87,1.87-9.11,7.14
			h4.79c0.05-2.49,2.21-3.84,4.51-3.84c4.84,0,5.08,2.45,5.08,6.62H359.26z M363.39,23.64c0.1,4.46-0.91,9.11-6.28,9.11
			c-2.69,0-4.75-1.49-4.75-4.46c0-3.5,3.69-4.51,6.47-4.65H363.39z M333.32,20.47c-5.71,0-11.7,1.97-11.7,8.73
			c0,4.7,4.22,6.85,8.39,6.85c3.31,0,5.99-1.29,7.48-4.31h0.1c0.05,1.1,0.14,2.16,0.24,3.26c0.05,0.58,0.86,0.34,1.3,0.34h3.07
			c-0.14-2.02-0.19-4.03-0.19-5.08V18.75c0-6.71-4.89-8.2-9.83-8.2c-4.75,0-8.87,1.87-9.11,7.14h4.8c0.05-2.49,2.2-3.84,4.51-3.84
			c4.84,0,5.08,2.45,5.08,6.62H333.32z M337.45,23.64c0.1,4.46-0.91,9.11-6.28,9.11c-2.68,0-4.75-1.49-4.75-4.46
			c0-3.5,3.69-4.51,6.47-4.65H337.45z M304.27,11.12v3.4l4.12-0.05v15.3c0,3.21,0.24,3.31,1.05,4.46c0.77,1.06,1.97,1.44,2.69,1.58
			c1.1,0.19,1.97,0.24,3.07,0.24c1.06,0,2.06-0.24,3.12-0.29v-3.5c-0.72,0.19-1.68,0.29-2.4,0.29c-1.63,0-2.97-0.82-2.97-2.54V14.48
			l5.56,0.05v-3.4l-5.56,0.14V4.7l-4.55,1.44v5.13L304.27,11.12z M275.26,25.22c-0.19,7.77,5.08,10.83,12.32,10.83
			c7,0,14.05-2.78,14.05-10.64c0-8.73-8.68-8.73-15.06-10.79c-3.02-0.96-5.8-1.2-5.8-5.13c0-4.12,4.65-5.37,8.06-5.37
			c3.45,0,6.71,1.34,6.9,5.22h5.03c0-6.71-5.8-9.35-11.7-9.35c-6.47,0-13.33,2.78-13.33,10.31c0,7.77,9.5,9.06,15.2,10.31
			c2.88,0.58,5.66,1.97,5.66,5.32c0,4.84-4.79,5.99-8.73,5.99c-4.65,0-7.48-1.82-7.57-6.71H275.26z M239.25,17.83
			c0,9.4,14.62,5.37,14.62,10.74c0,3.12-2.73,4.17-5.42,4.17c-2.78,0-4.8-1.58-4.89-4.55h-4.8c-0.05,5.56,4.17,7.86,9.21,7.86
			c4.94,0,10.69-1.82,10.69-7.72c0-5.42-4.7-5.9-8.77-7.24c-1.73-0.53-5.85-0.72-5.85-3.4c0-2.69,1.97-3.84,4.41-3.84
			c2.64,0,4.99,1.01,4.79,4.08h4.79c0.34-5.47-4.79-7.38-9.35-7.38C244.33,10.55,239.25,12.8,239.25,17.83 M218.01,21
			c0-3.93,2.25-7.15,6.04-7.15c4.41,0,6.23,3.12,6.14,7.15H218.01z M234.98,24.16v-2.25c0-6.66-3.41-11.22-10.6-11.36
			c-7.62,0-11.17,5.9-11.17,12.95c0,7.1,3.07,12.56,10.79,12.56c5.75,0,9.97-2.73,10.69-8.2h-4.8c-0.53,3.5-2.3,4.89-5.85,4.89
			c-4.65,0-6.38-4.36-6.04-8.58H234.98z M191.06,35.34V22.97c0-1.34-0.29-3.07,0.77-5.56c0.86-2.01,3.64-3.4,5.47-3.36
			c4.27,0.1,5.37,2.83,5.37,7.05v14.24h4.55v-16.3c0-4.32-1.96-8.49-8.25-8.49c-3.5,0-6.09,1.25-7.82,3.93h-0.1V0.72h-4.55v34.62
			H191.06z M181.13,18.99c-0.24-5.23-4.08-8.44-9.16-8.44c-7.62,0-11.17,5.9-11.17,12.95c0,7.1,3.07,12.56,10.79,12.56
			c5.32,0,9.35-3.31,9.73-8.73h-4.55c-0.24,3.45-2.11,5.42-5.13,5.42c-4.36,0-6.04-3.79-6.04-9.45c0-5.66,1.68-9.45,6.04-9.45
			c3.26,0,4.7,2.11,4.94,5.13H181.13z M138.22,17.83c0,9.4,14.62,5.37,14.62,10.74c0,3.12-2.73,4.17-5.42,4.17
			c-2.78,0-4.79-1.58-4.89-4.55h-4.79c-0.05,5.56,4.17,7.86,9.21,7.86c4.94,0,10.69-1.82,10.69-7.72c0-5.42-4.7-5.9-8.78-7.24
			c-1.73-0.53-5.85-0.72-5.85-3.4c0-2.69,1.97-3.84,4.41-3.84c2.64,0,4.99,1.01,4.79,4.08h4.8c0.33-5.47-4.8-7.38-9.35-7.38
			C143.3,10.55,138.22,12.8,138.22,17.83 M127.05,5.66h5.42V0.72h-5.42V5.66z M132.03,11.26h-4.56v24.07h4.56V11.26z M114.15,23.4
			c0-5.08,1.01-8.15,6.76-8.34c0.62,0,1.34,0,1.97,0.24v-4.31c-0.53,0-1.01-0.05-1.58-0.05c-3.31,0-6.38,1.68-7.05,4.99h-0.1v-4.65
			h-4.55v24.07h4.55V23.4z M86.44,21c0-3.93,2.25-7.15,6.04-7.15c4.41,0,6.23,3.12,6.14,7.15H86.44z M103.41,24.16v-2.25
			c0-6.66-3.4-11.22-10.6-11.36c-7.62,0-11.17,5.9-11.17,12.95c0,7.1,3.07,12.56,10.79,12.56c5.75,0,9.97-2.73,10.69-8.2h-4.8
			c-0.53,3.5-2.3,4.89-5.85,4.89c-4.65,0-6.38-4.36-6.04-8.58H103.41z M79.2,11.26H74.3l-7.67,18.99l-7.53-18.99h-5.08l10.02,23.97
			l-3.64,9.3h4.65L79.2,11.26z M41.56,20.47c-5.71,0-11.7,1.97-11.7,8.73c0,4.7,4.22,6.85,8.39,6.85c3.31,0,5.99-1.29,7.48-4.31h0.1
			c0.05,1.1,0.14,2.16,0.24,3.26c0.05,0.58,0.86,0.34,1.29,0.34h3.07c-0.14-2.02-0.19-4.03-0.19-5.08V18.75
			c0-6.71-4.89-8.2-9.83-8.2c-4.75,0-8.87,1.87-9.11,7.14h4.79c0.05-2.49,2.21-3.84,4.51-3.84c4.84,0,5.08,2.45,5.08,6.62H41.56z
			 M45.68,23.64c0.1,4.46-0.91,9.11-6.28,9.11c-2.69,0-4.75-1.49-4.75-4.46c0-3.5,3.69-4.51,6.47-4.65H45.68z M5.4,19.42h8.01
			c3.69,0,6.76,1.63,6.76,5.9c0,4.27-3.07,5.9-6.76,5.9H5.4V19.42z M12.98,35.34c2.06,0.05,4.17,0,5.95-0.67
			c3.64-1.34,6.28-4.36,6.28-8.39c0-4.32-2.45-8.29-6.91-8.96v-0.1c3.41-0.96,5.85-3.88,5.85-7.48c0-6.71-5.23-9.01-11.17-9.01H0.61
			v34.62H12.98z M5.4,4.84h5.95c4.55-0.14,7.77,0.67,7.77,5.23c0,4.55-3.21,5.37-7.77,5.23H5.4V4.84z"/>
		<path class="st0" d="M729.57,67.05c0,9.4,14.62,5.37,14.62,10.74c0,3.12-2.73,4.17-5.42,4.17c-2.78,0-4.79-1.58-4.89-4.55h-4.79
			c-0.05,5.56,4.17,7.86,9.21,7.86c4.94,0,10.69-1.82,10.69-7.72c0-5.42-4.7-5.9-8.78-7.24c-1.72-0.53-5.85-0.72-5.85-3.4
			c0-2.69,1.96-3.84,4.41-3.84c2.64,0,4.99,1.01,4.79,4.08h4.8c0.33-5.47-4.8-7.38-9.35-7.38
			C734.65,59.76,729.57,62.01,729.57,67.05 M718.92,72.85c0,0.57-0.05,3.4-0.91,5.66c-0.96,2.49-3.5,3.45-5.37,3.45
			c-4.36,0-5.32-3.07-5.32-7.24V60.48h-4.55v16.11c0,4.84,2.88,8.68,7.91,8.68c3.36,0,6.42-1.25,8.25-4.27h0.09v3.55h4.46V60.48
			h-4.55V72.85z M683.63,60.33v3.41l4.12-0.05v15.3c0,3.21,0.24,3.31,1.06,4.46c0.77,1.05,1.97,1.44,2.69,1.58
			c1.1,0.19,1.97,0.24,3.07,0.24c1.06,0,2.06-0.24,3.12-0.29v-3.5c-0.72,0.19-1.68,0.29-2.4,0.29c-1.63,0-2.97-0.82-2.97-2.54V63.69
			l5.56,0.05v-3.41l-5.56,0.14v-6.57l-4.56,1.44v5.13L683.63,60.33z M679.56,49.93H675v34.62h4.55V49.93z M662.49,72.85
			c0,0.57-0.05,3.4-0.91,5.66c-0.96,2.49-3.5,3.45-5.37,3.45c-4.36,0-5.32-3.07-5.32-7.24V60.48h-4.55v16.11
			c0,4.84,2.88,8.68,7.91,8.68c3.36,0,6.43-1.25,8.25-4.27h0.1v3.55h4.46V60.48h-4.56V72.85z M619.96,84.55V66.18l15.96,18.37h6.76
			l-17.21-19.13l15.49-15.49h-6.57l-14.43,15.01V49.93h-4.8v34.62H619.96z M590.52,63.74h-0.1c-1.39-2.88-4.41-3.98-7.48-3.98
			c-7.48,0-10.79,6.23-10.79,12.75c0,6.19,2.83,12.75,9.97,12.75c3.5,0,6.66-1.2,8.29-4.55h0.1v0.24l0.14,3.6h4.65
			c-0.1-1.39-0.24-2.83-0.24-4.27V49.93h-4.55V63.74z M576.95,72.46c0-4.51,1.34-9.54,6.81-9.54c5.18,0,6.81,5.18,6.81,9.54
			c0,4.51-1.29,9.64-6.81,9.64C578.63,82.1,576.95,76.97,576.95,72.46 M549.76,60.48h-4.46v24.07h4.56V71.46
			c0-4.7,1.25-5.75,1.92-6.42c1.92-1.92,4.41-1.77,4.41-1.77c3.83,0,5.52,2.16,5.52,6.14v15.15h4.55V67.91
			c0-7.72-7.43-8.15-9.11-8.15c-2.4,0-5.75,1.25-7.29,4.27h-0.1V60.48z M532.88,72.85c0,0.57-0.05,3.4-0.91,5.66
			c-0.96,2.49-3.5,3.45-5.37,3.45c-4.36,0-5.32-3.07-5.32-7.24V60.48h-4.55v16.11c0,4.84,2.88,8.68,7.91,8.68
			c3.36,0,6.43-1.25,8.25-4.27h0.1v3.55h4.46V60.48h-4.56V72.85z M484.98,60.33v3.41l4.12-0.05v15.3c0,3.21,0.24,3.31,1.05,4.46
			c0.77,1.05,1.97,1.44,2.69,1.58c1.1,0.19,1.96,0.24,3.07,0.24c1.05,0,2.06-0.24,3.12-0.29v-3.5c-0.72,0.19-1.68,0.29-2.4,0.29
			c-1.63,0-2.97-0.82-2.97-2.54V63.69l5.56,0.05v-3.41l-5.56,0.14v-6.57l-4.55,1.44v5.13L484.98,60.33z M464.84,84.55V72.18
			c0-1.34-0.29-3.07,0.77-5.56c0.86-2.01,3.64-3.41,5.47-3.36c4.27,0.09,5.37,2.83,5.37,7.05v14.24H481v-16.3
			c0-4.32-1.97-8.49-8.25-8.49c-3.5,0-6.09,1.25-7.82,3.93h-0.1V49.93h-4.55v34.62H464.84z M454.92,68.2
			c-0.24-5.22-4.07-8.44-9.16-8.44c-7.62,0-11.17,5.9-11.17,12.95c0,7.1,3.07,12.56,10.79,12.56c5.32,0,9.35-3.31,9.73-8.73h-4.55
			c-0.24,3.45-2.11,5.42-5.13,5.42c-4.36,0-6.04-3.79-6.04-9.45c0-5.66,1.68-9.45,6.04-9.45c3.26,0,4.7,2.11,4.94,5.13H454.92z
			 M424.09,54.87h5.42v-4.94h-5.42V54.87z M429.07,60.48h-4.55v24.07h4.55V60.48z M411.19,72.61c0-5.08,1.01-8.15,6.76-8.34
			c0.62,0,1.34,0,1.96,0.24v-4.32c-0.53,0-1.01-0.05-1.58-0.05c-3.31,0-6.38,1.68-7.05,4.99h-0.1v-4.65h-4.56v24.07h4.56V72.61z
			 M393.26,72.61c0-5.08,1.01-8.15,6.76-8.34c0.62,0,1.34,0,1.96,0.24v-4.32c-0.53,0-1.01-0.05-1.58-0.05
			c-3.31,0-6.38,1.68-7.05,4.99h-0.09v-4.65h-4.56v24.07h4.56V72.61z M365.54,70.21c0-3.93,2.25-7.14,6.04-7.14
			c4.41,0,6.23,3.12,6.14,7.14H365.54z M382.52,73.37v-2.25c0-6.66-3.41-11.22-10.6-11.36c-7.62,0-11.17,5.9-11.17,12.95
			c0,7.1,3.07,12.56,10.79,12.56c5.75,0,9.97-2.73,10.69-8.2h-4.79c-0.53,3.5-2.3,4.89-5.85,4.89c-4.65,0-6.38-4.36-6.04-8.58
			H382.52z M343.49,60.33v3.41l4.12-0.05v15.3c0,3.21,0.24,3.31,1.06,4.46c0.77,1.05,1.96,1.44,2.68,1.58
			c1.1,0.19,1.97,0.24,3.07,0.24c1.06,0,2.06-0.24,3.12-0.29v-3.5c-0.72,0.19-1.68,0.29-2.4,0.29c-1.63,0-2.97-0.82-2.97-2.54V63.69
			l5.56,0.05v-3.41l-5.56,0.14v-6.57l-4.56,1.44v5.13L343.49,60.33z M323.25,60.48h-4.46v24.07h4.55V71.46
			c0-4.7,1.25-5.75,1.92-6.42c1.92-1.92,4.41-1.77,4.41-1.77c3.83,0,5.52,2.16,5.52,6.14v15.15h4.55V67.91
			c0-7.72-7.43-8.15-9.11-8.15c-2.4,0-5.75,1.25-7.29,4.27h-0.1V60.48z M310.5,49.93h-4.79v22.06c-0.14,5.95-3.69,9.16-9.16,9.16
			c-5.46,0-9.01-3.21-9.16-9.16V49.93h-4.79v20.91c-0.14,8.92,4.55,14.43,13.95,14.43c9.4,0,14.1-5.51,13.95-14.43V49.93z"/>
	</g>
</g>
</svg>
