<?xml version="1.0" encoding="UTF-8"?>
<svg id="SODA_RZ_Neue_Unterzeile_" data-name="SODA RZ (Neue Unterzeile)" xmlns="http://www.w3.org/2000/svg" version="1.1" viewBox="0 0 340.16 170.08">
  <defs>
    <style>
      .cls-1 {
        fill: none;
      }

      .cls-1, .cls-2 {
        stroke-width: 0px;
      }

      .cls-2 {
        fill: #00883a;
      }
    </style>
  </defs>
  <rect id="Bounding_Box" data-name="Bounding Box" class="cls-1" x="-.01" width="340.16" height="170.08"/>
  <g>
    <g>
      <g>
        <path class="cls-2" d="M51.71,89.01l2.52-2.89c5.7,5.33,10.96,7.7,18.59,7.7s13.11-4.37,13.11-10.3v-.15c0-5.48-2.89-8.67-14.67-11.04-12.52-2.59-17.48-6.67-17.48-14.59v-.15c0-7.7,7.04-13.63,16.67-13.63,7.48,0,12.52,2.07,17.78,6.3l-2.44,3.04c-4.96-4.22-9.78-5.85-15.48-5.85-7.7,0-12.67,4.44-12.67,9.78v.15c0,5.56,2.81,8.74,15.11,11.33,12.07,2.44,17.04,6.67,17.04,14.3v.15c0,8.37-7.19,14.15-17.19,14.15-8.3,0-14.67-2.74-20.89-8.3Z"/>
        <path class="cls-2" d="M182.12,44.71h17.26c16.3,0,27.56,11.19,27.56,25.78v.15c0,14.59-11.26,25.93-27.56,25.93h-17.26v-51.85ZM185.97,48.26v44.74h13.41c14.44,0,23.56-9.85,23.56-22.22v-.15c0-12.22-9.11-22.37-23.56-22.37h-13.41Z"/>
        <path class="cls-2" d="M260.28,44.34h3.7l24.15,52.22h-4.22l-6.59-14.52h-30.59l-6.59,14.52h-4l24.15-52.22ZM275.69,78.56l-13.63-30-13.7,30h27.33Z"/>
      </g>
      <path class="cls-2" d="M115.82,43.85c0-1.12.91-2.03,2.03-2.03s2.03.91,2.03,2.03-.91,2.03-2.03,2.03-2.03-.91-2.03-2.03ZM117.84,68.51c1.87,0,3.38-1.51,3.38-3.38s-1.51-3.38-3.38-3.38-3.38,1.51-3.38,3.38,1.51,3.38,3.38,3.38ZM117.84,57.2c1.49,0,2.7-1.21,2.7-2.7s-1.21-2.7-2.7-2.7-2.7,1.21-2.7,2.7,1.21,2.7,2.7,2.7ZM107.2,56.52c1.12,0,2.03-.91,2.03-2.03s-.91-2.03-2.03-2.03-2.03.91-2.03,2.03.91,2.03,2.03,2.03ZM107.2,61.07c-2.24,0-4.06,1.82-4.06,4.06s1.82,4.06,4.06,4.06,4.06-1.82,4.06-4.06-1.82-4.06-4.06-4.06ZM107.2,73.06c-1.49,0-2.7,1.21-2.7,2.7s1.21,2.7,2.7,2.7,2.7-1.21,2.7-2.7-1.21-2.7-2.7-2.7ZM107.2,84.38c-1.12,0-2.03.91-2.03,2.03s.91,2.03,2.03,2.03,2.03-.91,2.03-2.03-.91-2.03-2.03-2.03ZM160.41,56.52c1.12,0,2.03-.91,2.03-2.03s-.91-2.03-2.03-2.03-2.03.91-2.03,2.03.91,2.03,2.03,2.03ZM117.84,95.02c-1.12,0-2.03.91-2.03,2.03s.91,2.03,2.03,2.03,2.03-.91,2.03-2.03-.91-2.03-2.03-2.03ZM160.41,68.51c1.87,0,3.38-1.51,3.38-3.38s-1.51-3.38-3.38-3.38-3.38,1.51-3.38,3.38,1.51,3.38,3.38,3.38ZM139.13,46.56c1.49,0,2.7-1.21,2.7-2.7s-1.21-2.7-2.7-2.7-2.7,1.21-2.7,2.7,1.21,2.7,2.7,2.7ZM128.49,51.11c-1.87,0-3.38,1.51-3.38,3.38s1.51,3.38,3.38,3.38,3.38-1.51,3.38-3.38-1.51-3.38-3.38-3.38ZM139.13,58.55c2.24,0,4.06-1.82,4.06-4.06s-1.82-4.06-4.06-4.06-4.06,1.82-4.06,4.06,1.82,4.06,4.06,4.06ZM128.49,48.59c2.61,0,4.73-2.12,4.73-4.73s-2.12-4.73-4.73-4.73-4.73,2.12-4.73,4.73,2.12,4.73,4.73,4.73ZM136.42,65.13c0,1.49,1.21,2.7,2.7,2.7s2.7-1.21,2.7-2.7-1.21-2.7-2.7-2.7-2.7,1.21-2.7,2.7ZM149.77,45.88c1.12,0,2.03-.91,2.03-2.03s-.91-2.03-2.03-2.03-2.03.91-2.03,2.03.91,2.03,2.03,2.03ZM149.77,82.35c-2.24,0-4.06,1.82-4.06,4.06s1.82,4.06,4.06,4.06,4.06-1.82,4.06-4.06-1.82-4.06-4.06-4.06ZM149.77,95.02c-1.12,0-2.03.91-2.03,2.03s.91,2.03,2.03,2.03,2.03-.91,2.03-2.03-.91-2.03-2.03-2.03ZM152.48,75.77c0-1.49-1.21-2.7-2.7-2.7s-2.7,1.21-2.7,2.7,1.21,2.7,2.7,2.7,2.7-1.21,2.7-2.7ZM139.13,70.36c-2.98,0-5.41,2.43-5.41,5.41s2.43,5.41,5.41,5.41,5.41-2.43,5.41-5.41-2.43-5.41-5.41-5.41ZM117.84,83.03c-1.87,0-3.38,1.51-3.38,3.38s1.51,3.38,3.38,3.38,3.38-1.51,3.38-3.38-1.51-3.38-3.38-3.38ZM149.77,61.07c-2.24,0-4.06,1.82-4.06,4.06s1.82,4.06,4.06,4.06,4.06-1.82,4.06-4.06-1.82-4.06-4.06-4.06ZM160.41,84.38c-1.12,0-2.03.91-2.03,2.03s.91,2.03,2.03,2.03,2.03-.91,2.03-2.03-.91-2.03-2.03-2.03ZM160.41,71.04c-2.61,0-4.73,2.12-4.73,4.73s2.12,4.73,4.73,4.73,4.73-2.12,4.73-4.73-2.12-4.73-4.73-4.73ZM128.49,93.66c-1.87,0-3.38,1.51-3.38,3.38s1.51,3.38,3.38,3.38,3.38-1.51,3.38-3.38-1.51-3.38-3.38-3.38ZM141.83,86.41c0-1.49-1.21-2.7-2.7-2.7s-2.7,1.21-2.7,2.7,1.21,2.7,2.7,2.7,2.7-1.21,2.7-2.7ZM128.49,83.03c-1.87,0-3.38,1.51-3.38,3.38s1.51,3.38,3.38,3.38,3.38-1.51,3.38-3.38-1.51-3.38-3.38-3.38ZM117.84,71.04c-2.61,0-4.73,2.12-4.73,4.73s2.12,4.73,4.73,4.73,4.73-2.12,4.73-4.73-2.12-4.73-4.73-4.73ZM139.13,92.31c-2.61,0-4.73,2.12-4.73,4.73s2.12,4.73,4.73,4.73,4.73-2.12,4.73-4.73-2.12-4.73-4.73-4.73ZM131.19,75.77c0-1.49-1.21-2.7-2.7-2.7s-2.7,1.21-2.7,2.7,1.21,2.7,2.7,2.7,2.7-1.21,2.7-2.7ZM128.49,59.72c-2.98,0-5.41,2.43-5.41,5.41s2.43,5.41,5.41,5.41,5.41-2.43,5.41-5.41-2.43-5.41-5.41-5.41ZM149.77,49.76c-2.61,0-4.73,2.12-4.73,4.73s2.12,4.73,4.73,4.73,4.73-2.12,4.73-4.73-2.12-4.73-4.73-4.73Z"/>
    </g>
    <g>
      <path class="cls-2" d="M53.42,130.82l.83-.98c1.23,1.11,2.42,1.67,4.05,1.67s2.63-.84,2.63-2.01v-.03c0-1.1-.59-1.72-3.07-2.25-2.72-.59-3.97-1.47-3.97-3.41v-.03c0-1.86,1.64-3.23,3.88-3.23,1.72,0,2.96.49,4.16,1.45l-.78,1.03c-1.1-.9-2.2-1.28-3.41-1.28-1.54,0-2.52.84-2.52,1.91v.03c0,1.12.61,1.74,3.21,2.3,2.63.57,3.85,1.54,3.85,3.34v.03c0,2.03-1.69,3.34-4.04,3.34-1.88,0-3.41-.62-4.83-1.89Z"/>
      <path class="cls-2" d="M64.25,128.22v-.03c0-2.47,1.93-4.56,4.56-4.56s4.54,2.06,4.54,4.53v.03c0,2.47-1.94,4.56-4.58,4.56s-4.53-2.06-4.53-4.53ZM72.02,128.22v-.03c0-1.88-1.4-3.41-3.24-3.41s-3.19,1.54-3.19,3.38v.03c0,1.88,1.39,3.4,3.23,3.4s3.21-1.52,3.21-3.36Z"/>
      <path class="cls-2" d="M75.15,128.22v-.03c0-2.47,1.93-4.56,4.48-4.56,1.66,0,2.69.69,3.5,1.55l-.86.91c-.69-.73-1.47-1.32-2.65-1.32-1.77,0-3.12,1.5-3.12,3.38v.03c0,1.89,1.39,3.4,3.21,3.4,1.11,0,1.98-.56,2.67-1.3l.83.78c-.88.98-1.92,1.69-3.56,1.69-2.55,0-4.48-2.08-4.48-4.53Z"/>
      <path class="cls-2" d="M85.37,120.46h1.49v1.44h-1.49v-1.44ZM85.46,123.81h1.3v8.73h-1.3v-8.73Z"/>
      <path class="cls-2" d="M89.12,130.01v-.03c0-1.84,1.52-2.82,3.73-2.82,1.11,0,1.91.15,2.69.37v-.3c0-1.57-.96-2.38-2.6-2.38-1.03,0-1.84.27-2.65.64l-.39-1.06c.96-.44,1.91-.73,3.17-.73s2.18.32,2.82.96c.59.59.9,1.44.9,2.55v5.34h-1.25v-1.32c-.61.79-1.62,1.5-3.16,1.5-1.62,0-3.26-.93-3.26-2.72ZM95.55,129.33v-.84c-.64-.19-1.5-.37-2.57-.37-1.64,0-2.55.71-2.55,1.81v.03c0,1.1,1.01,1.74,2.2,1.74,1.6,0,2.92-.98,2.92-2.36Z"/>
      <path class="cls-2" d="M99.67,120.21h1.3v12.33h-1.3v-12.33Z"/>
      <path class="cls-2" d="M109.28,120.72h4.11c3.72,0,6.28,2.55,6.28,5.88v.03c0,3.33-2.57,5.91-6.28,5.91h-4.11v-11.82ZM110.61,121.95v9.36h2.77c2.99,0,4.9-2.03,4.9-4.64v-.03c0-2.62-1.91-4.68-4.9-4.68h-2.77Z"/>
      <path class="cls-2" d="M121.6,130.01v-.03c0-1.84,1.52-2.82,3.73-2.82,1.11,0,1.91.15,2.69.37v-.3c0-1.57-.96-2.38-2.6-2.38-1.03,0-1.84.27-2.65.64l-.39-1.06c.96-.44,1.91-.73,3.17-.73s2.18.32,2.82.96c.59.59.9,1.44.9,2.55v5.34h-1.25v-1.32c-.61.79-1.62,1.5-3.16,1.5-1.62,0-3.26-.93-3.26-2.72ZM128.04,129.33v-.84c-.64-.19-1.5-.37-2.57-.37-1.64,0-2.55.71-2.55,1.81v.03c0,1.1,1.01,1.74,2.2,1.74,1.6,0,2.92-.98,2.92-2.36Z"/>
      <path class="cls-2" d="M132.41,130.23v-5.27h-1.22v-1.15h1.22v-2.64h1.3v2.64h2.77v1.15h-2.77v5.1c0,1.06.59,1.45,1.47,1.45.44,0,.81-.08,1.27-.3v1.11c-.46.24-.95.37-1.57.37-1.4,0-2.47-.69-2.47-2.47Z"/>
      <path class="cls-2" d="M138.12,130.01v-.03c0-1.84,1.52-2.82,3.73-2.82,1.11,0,1.91.15,2.69.37v-.3c0-1.57-.96-2.38-2.6-2.38-1.03,0-1.84.27-2.65.64l-.39-1.06c.96-.44,1.91-.73,3.17-.73s2.18.32,2.82.96c.59.59.9,1.44.9,2.55v5.34h-1.25v-1.32c-.61.79-1.62,1.5-3.16,1.5-1.62,0-3.26-.93-3.26-2.72ZM144.55,129.33v-.84c-.64-.19-1.5-.37-2.57-.37-1.64,0-2.55.71-2.55,1.81v.03c0,1.1,1.01,1.74,2.2,1.74,1.6,0,2.92-.98,2.92-2.36Z"/>
      <path class="cls-2" d="M153.06,130.82l.83-.98c1.23,1.11,2.42,1.67,4.05,1.67s2.63-.84,2.63-2.01v-.03c0-1.1-.59-1.72-3.07-2.25-2.72-.59-3.97-1.47-3.97-3.41v-.03c0-1.86,1.64-3.23,3.88-3.23,1.72,0,2.96.49,4.16,1.45l-.78,1.03c-1.1-.9-2.2-1.28-3.41-1.28-1.54,0-2.52.84-2.52,1.91v.03c0,1.12.61,1.74,3.21,2.3,2.63.57,3.85,1.54,3.85,3.34v.03c0,2.03-1.69,3.34-4.04,3.34-1.88,0-3.41-.62-4.83-1.89Z"/>
      <path class="cls-2" d="M163.89,128.22v-.03c0-2.47,1.93-4.56,4.48-4.56,1.66,0,2.69.69,3.5,1.55l-.86.91c-.69-.73-1.47-1.32-2.65-1.32-1.77,0-3.12,1.5-3.12,3.38v.03c0,1.89,1.39,3.4,3.21,3.4,1.11,0,1.98-.56,2.67-1.3l.83.78c-.88.98-1.92,1.69-3.56,1.69-2.55,0-4.48-2.08-4.48-4.53Z"/>
      <path class="cls-2" d="M174.1,120.46h1.49v1.44h-1.49v-1.44ZM174.19,123.81h1.3v8.73h-1.3v-8.73Z"/>
      <path class="cls-2" d="M177.97,128.2v-.03c0-2.52,1.77-4.54,4.19-4.54,2.58,0,4.07,2.06,4.07,4.61,0,.17,0,.27-.02.42h-6.93c.19,1.89,1.52,2.96,3.07,2.96,1.2,0,2.04-.49,2.75-1.23l.81.73c-.88.98-1.94,1.64-3.6,1.64-2.4,0-4.36-1.84-4.36-4.54ZM184.91,127.69c-.13-1.59-1.05-2.97-2.79-2.97-1.52,0-2.67,1.27-2.84,2.97h5.62Z"/>
      <path class="cls-2" d="M188.5,123.81h1.3v1.52c.57-.95,1.49-1.71,2.99-1.71,2.11,0,3.34,1.42,3.34,3.5v5.42h-1.3v-5.1c0-1.62-.88-2.63-2.42-2.63s-2.62,1.1-2.62,2.74v5h-1.3v-8.73Z"/>
      <path class="cls-2" d="M198.36,128.22v-.03c0-2.47,1.93-4.56,4.48-4.56,1.66,0,2.69.69,3.5,1.55l-.86.91c-.69-.73-1.47-1.32-2.65-1.32-1.77,0-3.12,1.5-3.12,3.38v.03c0,1.89,1.39,3.4,3.21,3.4,1.11,0,1.98-.56,2.67-1.3l.83.78c-.88.98-1.93,1.69-3.56,1.69-2.55,0-4.48-2.08-4.48-4.53Z"/>
      <path class="cls-2" d="M207.75,128.2v-.03c0-2.52,1.77-4.54,4.19-4.54,2.58,0,4.07,2.06,4.07,4.61,0,.17,0,.27-.02.42h-6.93c.19,1.89,1.52,2.96,3.07,2.96,1.2,0,2.04-.49,2.75-1.23l.81.73c-.88.98-1.94,1.64-3.6,1.64-2.4,0-4.36-1.84-4.36-4.54ZM214.69,127.69c-.13-1.59-1.05-2.97-2.79-2.97-1.52,0-2.67,1.27-2.84,2.97h5.62Z"/>
      <path class="cls-2" d="M224.52,127.68h-3.5v-1.22h3.5v-3.48h1.27v3.48h3.5v1.22h-3.5v3.48h-1.27v-3.48Z"/>
      <path class="cls-2" d="M238.67,120.63h1.25l5.39,11.91h-1.44l-1.39-3.12h-6.44l-1.4,3.12h-1.37l5.39-11.91ZM241.97,128.22l-2.69-6.03-2.7,6.03h5.39Z"/>
      <path class="cls-2" d="M247.75,120.72h1.33v11.82h-1.33v-11.82Z"/>
      <path class="cls-2" d="M257.61,120.72h1.33v10.59h6.66v1.23h-7.99v-11.82Z"/>
      <path class="cls-2" d="M267.12,130.01v-.03c0-1.84,1.52-2.82,3.73-2.82,1.11,0,1.91.15,2.69.37v-.3c0-1.57-.96-2.38-2.6-2.38-1.03,0-1.84.27-2.65.64l-.39-1.06c.96-.44,1.91-.73,3.17-.73s2.18.32,2.82.96c.59.59.9,1.44.9,2.55v5.34h-1.25v-1.32c-.61.79-1.62,1.5-3.16,1.5-1.62,0-3.26-.93-3.26-2.72ZM273.56,129.33v-.84c-.64-.19-1.5-.37-2.57-.37-1.64,0-2.55.71-2.55,1.81v.03c0,1.1,1.01,1.74,2.2,1.74,1.6,0,2.92-.98,2.92-2.36Z"/>
      <path class="cls-2" d="M278.85,130.87v1.67h-1.3v-12.33h1.3v5.35c.71-1.05,1.74-1.94,3.34-1.94,2.09,0,4.17,1.66,4.17,4.53v.03c0,2.86-2.06,4.54-4.17,4.54-1.62,0-2.67-.88-3.34-1.86ZM285.04,128.2v-.03c0-2.06-1.42-3.38-3.07-3.38s-3.16,1.37-3.16,3.36v.03c0,2.03,1.54,3.38,3.16,3.38s3.07-1.25,3.07-3.36Z"/>
    </g>
  </g>
</svg>