<svg width="106" height="43" viewBox="0 0 106 43" fill="none" xmlns="http://www.w3.org/2000/svg">
<path d="M0 22.4021L1.12983 21.1046C3.68538 23.4976 6.04367 24.5616 9.46453 24.5616C12.8854 24.5616 15.3423 22.5996 15.3423 19.9372V19.8699C15.3423 17.4096 14.0466 15.9774 8.76512 14.9133C3.15186 13.7505 0.928071 11.9187 0.928071 8.3629V8.29556C0.928071 4.83852 4.08441 2.17615 8.40196 2.17615C11.7556 2.17615 14.0152 3.10551 16.3735 5.00463L15.2795 6.36949C13.0558 4.47485 10.8947 3.74304 8.33919 3.74304C4.88694 3.74304 2.65868 5.73645 2.65868 8.13393V8.20127C2.65868 10.6975 3.91852 12.1252 9.43315 13.2881C14.8447 14.3835 17.0729 16.2827 17.0729 19.7083V19.7756C17.0729 23.5335 13.8493 26.1285 9.3659 26.1285C5.64464 26.1285 2.7887 24.8983 0 22.4021Z" fill="#292C2D"/>
<path d="M58.4717 2.51312H66.2101C73.5181 2.51312 78.5664 7.53705 78.5664 14.0875V14.1548C78.5664 20.7052 73.5181 25.7965 66.2101 25.7965H58.4717V2.51761V2.51312ZM60.1978 4.10695V24.1937H66.2101C72.6842 24.1937 76.7731 19.7714 76.7731 14.2177V14.1503C76.7731 8.66396 72.6887 4.10695 66.2101 4.10695H60.1978Z" fill="#292C2D"/>
<path d="M93.5137 2.34924H95.1726L106 25.7943H104.108L101.153 19.2753H87.4386L84.484 25.7943H82.6907L93.5182 2.34924H93.5137ZM100.423 17.7129L94.3117 4.24388L88.1694 17.7129H100.423Z" fill="#292C2D"/>
<path d="M28.7431 2.11918C28.7431 1.61634 29.1511 1.20778 29.6532 1.20778C30.1554 1.20778 30.5634 1.61634 30.5634 2.11918C30.5634 2.62202 30.1554 3.03058 29.6532 3.03058C29.1511 3.03058 28.7431 2.62202 28.7431 2.11918ZM29.6488 13.1907C30.4872 13.1907 31.1642 12.5127 31.1642 11.6732C31.1642 10.8336 30.4872 10.1557 29.6488 10.1557C28.8104 10.1557 28.1334 10.8336 28.1334 11.6732C28.1334 12.5127 28.8104 13.1907 29.6488 13.1907ZM29.6488 8.11288C30.3168 8.11288 30.8593 7.56963 30.8593 6.90067C30.8593 6.23171 30.3168 5.68846 29.6488 5.68846C28.9807 5.68846 28.4382 6.23171 28.4382 6.90067C28.4382 7.56963 28.9807 8.11288 29.6488 8.11288ZM24.8784 7.80758C25.3805 7.80758 25.7885 7.39902 25.7885 6.89618C25.7885 6.39334 25.3805 5.98478 24.8784 5.98478C24.3762 5.98478 23.9682 6.39334 23.9682 6.89618C23.9682 7.39902 24.3762 7.80758 24.8784 7.80758ZM24.8784 9.85038C23.8741 9.85038 23.0581 10.6675 23.0581 11.6732C23.0581 12.6789 23.8741 13.496 24.8784 13.496C25.8827 13.496 26.6987 12.6789 26.6987 11.6732C26.6987 10.6675 25.8827 9.85038 24.8784 9.85038ZM24.8784 15.2335C24.2103 15.2335 23.6679 15.7767 23.6679 16.4457C23.6679 17.1147 24.2103 17.6579 24.8784 17.6579C25.5464 17.6579 26.0889 17.1147 26.0889 16.4457C26.0889 15.7767 25.5464 15.2335 24.8784 15.2335ZM24.8784 20.3158C24.3762 20.3158 23.9682 20.7243 23.9682 21.2272C23.9682 21.73 24.3762 22.1386 24.8784 22.1386C25.3805 22.1386 25.7885 21.73 25.7885 21.2272C25.7885 20.7243 25.3805 20.3158 24.8784 20.3158ZM48.7347 7.80758C49.2369 7.80758 49.6449 7.39902 49.6449 6.89618C49.6449 6.39334 49.2369 5.98478 48.7347 5.98478C48.2326 5.98478 47.8246 6.39334 47.8246 6.89618C47.8246 7.39902 48.2326 7.80758 48.7347 7.80758ZM29.6488 25.0928C29.1466 25.0928 28.7386 25.5013 28.7386 26.0042C28.7386 26.507 29.1466 26.9156 29.6488 26.9156C30.1509 26.9156 30.5589 26.507 30.5589 26.0042C30.5589 25.5013 30.1509 25.0928 29.6488 25.0928ZM48.7347 13.1907C49.5731 13.1907 50.2501 12.5127 50.2501 11.6732C50.2501 10.8336 49.5731 10.1557 48.7347 10.1557C47.8963 10.1557 47.2193 10.8336 47.2193 11.6732C47.2193 12.5127 47.8963 13.1907 48.7347 13.1907ZM39.194 3.33588C39.862 3.33588 40.4045 2.79263 40.4045 2.12367C40.4045 1.45471 39.862 0.911462 39.194 0.911462C38.526 0.911462 37.9835 1.45471 37.9835 2.12367C37.9835 2.79263 38.526 3.33588 39.194 3.33588ZM34.4236 5.37867C33.5852 5.37867 32.9082 6.05661 32.9082 6.89618C32.9082 7.73575 33.5852 8.41368 34.4236 8.41368C35.262 8.41368 35.939 7.73575 35.939 6.89618C35.939 6.05661 35.262 5.37867 34.4236 5.37867ZM39.194 8.71898C40.1983 8.71898 41.0143 7.90187 41.0143 6.89618C41.0143 5.8905 40.1983 5.07338 39.194 5.07338C38.1897 5.07338 37.3737 5.8905 37.3737 6.89618C37.3737 7.90187 38.1897 8.71898 39.194 8.71898ZM34.4236 4.24728C35.5938 4.24728 36.5443 3.29547 36.5443 2.12367C36.5443 0.951869 35.5938 6.10352e-05 34.4236 6.10352e-05C33.2534 6.10352e-05 32.303 0.951869 32.303 2.12367C32.303 3.29547 33.2534 4.24728 34.4236 4.24728ZM37.979 11.6732C37.979 12.3421 38.5215 12.8854 39.1895 12.8854C39.8575 12.8854 40.4 12.3421 40.4 11.6732C40.4 11.0042 39.8575 10.461 39.1895 10.461C38.5215 10.461 37.979 11.0042 37.979 11.6732ZM43.9644 3.03058C44.4665 3.03058 44.8745 2.62202 44.8745 2.11918C44.8745 1.61634 44.4665 1.20778 43.9644 1.20778C43.4622 1.20778 43.0542 1.61634 43.0542 2.11918C43.0542 2.62202 43.4622 3.03058 43.9644 3.03058ZM43.9644 19.4044C42.9601 19.4044 42.1441 20.2215 42.1441 21.2272C42.1441 22.2329 42.9601 23.05 43.9644 23.05C44.9687 23.05 45.7846 22.2329 45.7846 21.2272C45.7846 20.2215 44.9687 19.4044 43.9644 19.4044ZM43.9644 25.0928C43.4622 25.0928 43.0542 25.5013 43.0542 26.0042C43.0542 26.507 43.4622 26.9156 43.9644 26.9156C44.4665 26.9156 44.8745 26.507 44.8745 26.0042C44.8745 25.5013 44.4665 25.0928 43.9644 25.0928ZM45.1794 16.4502C45.1794 15.7812 44.6369 15.238 43.9688 15.238C43.3008 15.238 42.7583 15.7812 42.7583 16.4502C42.7583 17.1191 43.3008 17.6624 43.9688 17.6624C44.6369 17.6624 45.1794 17.1191 45.1794 16.4502ZM39.194 14.0213C37.8579 14.0213 36.7685 15.1123 36.7685 16.4502C36.7685 17.7881 37.8579 18.8791 39.194 18.8791C40.5301 18.8791 41.6195 17.7881 41.6195 16.4502C41.6195 15.1123 40.5301 14.0213 39.194 14.0213ZM29.6488 19.7097C28.8104 19.7097 28.1334 20.3876 28.1334 21.2272C28.1334 22.0667 28.8104 22.7447 29.6488 22.7447C30.4872 22.7447 31.1642 22.0667 31.1642 21.2272C31.1642 20.3876 30.4872 19.7097 29.6488 19.7097ZM43.9644 9.85038C42.9601 9.85038 42.1441 10.6675 42.1441 11.6732C42.1441 12.6789 42.9601 13.496 43.9644 13.496C44.9687 13.496 45.7846 12.6789 45.7846 11.6732C45.7846 10.6675 44.9687 9.85038 43.9644 9.85038ZM48.7347 20.3158C48.2326 20.3158 47.8246 20.7243 47.8246 21.2272C47.8246 21.73 48.2326 22.1386 48.7347 22.1386C49.2369 22.1386 49.6449 21.73 49.6449 21.2272C49.6449 20.7243 49.2369 20.3158 48.7347 20.3158ZM48.7347 14.3266C47.5646 14.3266 46.6141 15.2784 46.6141 16.4502C46.6141 17.622 47.5646 18.5738 48.7347 18.5738C49.9049 18.5738 50.8554 17.622 50.8554 16.4502C50.8554 15.2784 49.9049 14.3266 48.7347 14.3266ZM34.4236 24.4822C33.5852 24.4822 32.9082 25.1601 32.9082 25.9997C32.9082 26.8393 33.5852 27.5172 34.4236 27.5172C35.262 27.5172 35.939 26.8393 35.939 25.9997C35.939 25.1601 35.262 24.4822 34.4236 24.4822ZM40.4045 21.2272C40.4045 20.5582 39.862 20.015 39.194 20.015C38.526 20.015 37.9835 20.5582 37.9835 21.2272C37.9835 21.8961 38.526 22.4394 39.194 22.4394C39.862 22.4394 40.4045 21.8961 40.4045 21.2272ZM34.4236 19.7097C33.5852 19.7097 32.9082 20.3876 32.9082 21.2272C32.9082 22.0667 33.5852 22.7447 34.4236 22.7447C35.262 22.7447 35.939 22.0667 35.939 21.2272C35.939 20.3876 35.262 19.7097 34.4236 19.7097ZM29.6488 14.3266C28.4786 14.3266 27.5281 15.2784 27.5281 16.4502C27.5281 17.622 28.4786 18.5738 29.6488 18.5738C30.8189 18.5738 31.7694 17.622 31.7694 16.4502C31.7694 15.2784 30.8189 14.3266 29.6488 14.3266ZM39.194 23.8761C38.0238 23.8761 37.0733 24.8279 37.0733 25.9997C37.0733 27.1715 38.0238 28.1233 39.194 28.1233C40.3642 28.1233 41.3147 27.1715 41.3147 25.9997C41.3147 24.8279 40.3642 23.8761 39.194 23.8761ZM35.6341 16.4502C35.6341 15.7812 35.0916 15.238 34.4236 15.238C33.7556 15.238 33.2131 15.7812 33.2131 16.4502C33.2131 17.1191 33.7556 17.6624 34.4236 17.6624C35.0916 17.6624 35.6341 17.1191 35.6341 16.4502ZM34.4236 9.24427C33.0876 9.24427 31.9981 10.3353 31.9981 11.6732C31.9981 13.0111 33.0876 14.1021 34.4236 14.1021C35.7597 14.1021 36.8492 13.0111 36.8492 11.6732C36.8492 10.3353 35.7597 9.24427 34.4236 9.24427ZM43.9644 4.77257C42.7942 4.77257 41.8437 5.72438 41.8437 6.89618C41.8437 8.06798 42.7942 9.01979 43.9644 9.01979C45.1345 9.01979 46.085 8.06798 46.085 6.89618C46.085 5.72438 45.1345 4.77257 43.9644 4.77257Z" fill="#292C2D"/>
<path d="M0.764737 41.1763L1.13686 40.7363C1.68832 41.2346 2.22185 41.486 2.95265 41.486C3.68345 41.486 4.1318 41.1089 4.1318 40.5836V40.5701C4.1318 40.0763 3.86727 39.7979 2.75538 39.56C1.53589 39.2951 0.975459 38.9 0.975459 38.029V38.0155C0.975459 37.1805 1.71074 36.5654 2.71503 36.5654C3.48618 36.5654 4.04213 36.7854 4.58014 37.2164L4.23043 37.6788C3.73726 37.2747 3.24408 37.1041 2.70158 37.1041C2.01113 37.1041 1.57176 37.4813 1.57176 37.9617V37.9751C1.57176 38.478 1.84525 38.7563 3.01094 39.0077C4.19008 39.2637 4.73706 39.6992 4.73706 40.5073V40.5208C4.73706 41.4322 3.97936 42.0203 2.92575 42.0203C2.08287 42.0203 1.3969 41.7419 0.760254 41.1718L0.764737 41.1763Z" fill="#292C2D"/>
<path d="M5.62216 40.0009V39.9875C5.62216 38.8785 6.48746 37.9402 7.66661 37.9402C8.84575 37.9402 9.70209 38.8651 9.70209 39.974V39.9875C9.70209 41.0964 8.8323 42.0348 7.64867 42.0348C6.46504 42.0348 5.61768 41.1099 5.61768 40.0009H5.62216ZM9.10579 40.0009V39.9875C9.10579 39.1434 8.47811 38.4565 7.65316 38.4565C6.8282 38.4565 6.22294 39.1479 6.22294 39.974V39.9875C6.22294 40.8315 6.84614 41.514 7.67109 41.514C8.49604 41.514 9.11027 40.8315 9.11027 40.0054L9.10579 40.0009Z" fill="#292C2D"/>
<path d="M10.5117 40.0009V39.9875C10.5117 38.8785 11.377 37.9402 12.5203 37.9402C13.2645 37.9402 13.7263 38.25 14.0895 38.6361L13.7039 39.0446C13.3946 38.7169 13.0449 38.452 12.5158 38.452C11.7222 38.452 11.117 39.1255 11.117 39.9695V39.983C11.117 40.8315 11.7402 41.5095 12.5562 41.5095C13.0538 41.5095 13.4439 41.258 13.7532 40.9258L14.1254 41.276C13.7308 41.716 13.2645 42.0348 12.5293 42.0348C11.386 42.0348 10.5207 41.1009 10.5207 40.0009H10.5117Z" fill="#292C2D"/>
<path d="M15.0913 36.5107H15.7579V37.1573H15.0913V36.5107ZM15.1316 38.0148H15.7132V41.9343H15.1316V38.0148Z" fill="#292C2D"/>
<path d="M16.7712 40.8096V40.7961C16.7712 39.97 17.4527 39.53 18.4436 39.53C18.9412 39.53 19.2999 39.5974 19.6496 39.6962V39.5615C19.6496 38.8566 19.2192 38.4929 18.4839 38.4929C18.0221 38.4929 17.659 38.6142 17.2958 38.7803L17.1209 38.3044C17.5514 38.1068 17.9773 37.9766 18.5422 37.9766C19.1071 37.9766 19.5196 38.1203 19.8065 38.4076C20.071 38.6725 20.21 39.0541 20.21 39.5525V41.95H19.6496V41.3573C19.3761 41.712 18.9233 42.0308 18.2328 42.0308C17.5065 42.0308 16.7712 41.6132 16.7712 40.8096ZM19.6541 40.5043V40.1272C19.3671 40.0419 18.9816 39.9611 18.5018 39.9611C17.7666 39.9611 17.3586 40.2798 17.3586 40.7737V40.7872C17.3586 41.281 17.8114 41.5684 18.3449 41.5684C19.0623 41.5684 19.6541 41.1284 19.6541 40.5088V40.5043Z" fill="#292C2D"/>
<path d="M21.5012 36.4015H22.0829V41.9372H21.5012V36.4015Z" fill="#292C2D"/>
<path d="M25.8123 36.6382H27.6549C29.3228 36.6382 30.4705 37.783 30.4705 39.2781V39.2916C30.4705 40.7866 29.3183 41.945 27.6549 41.945H25.8123V36.6382ZM26.4086 37.1904V41.3927H27.6505C28.991 41.3927 29.8473 40.4813 29.8473 39.3095V39.2961C29.8473 38.1198 28.991 37.1949 27.6505 37.1949H26.4086V37.1904Z" fill="#292C2D"/>
<path d="M31.3345 40.8096V40.7961C31.3345 39.97 32.016 39.53 33.0068 39.53C33.5045 39.53 33.8631 39.5974 34.2128 39.6962V39.5615C34.2128 38.8566 33.7824 38.4929 33.0471 38.4929C32.5854 38.4929 32.2222 38.6142 31.859 38.7803L31.6842 38.3044C32.1146 38.1068 32.5405 37.9766 33.1054 37.9766C33.6703 37.9766 34.0828 38.1203 34.3698 38.4076C34.6343 38.6725 34.7733 39.0541 34.7733 39.5525V41.95H34.2128V41.3573C33.9394 41.712 33.4865 42.0308 32.7961 42.0308C32.0698 42.0308 31.3345 41.6132 31.3345 40.8096ZM34.2218 40.5043V40.1272C33.9349 40.0419 33.5493 39.9611 33.0696 39.9611C32.3343 39.9611 31.9263 40.2798 31.9263 40.7737V40.7872C31.9263 41.281 32.3791 41.5684 32.9126 41.5684C33.63 41.5684 34.2218 41.1284 34.2218 40.5088V40.5043Z" fill="#292C2D"/>
<path d="M36.1791 40.9061V38.5401H35.6321V38.0238H36.1791V36.8385H36.7619V38.0238H38.0038V38.5401H36.7619V40.8298C36.7619 41.3057 37.0264 41.4808 37.421 41.4808C37.6182 41.4808 37.7841 41.4449 37.9904 41.3461V41.8445C37.7841 41.9522 37.5644 42.0106 37.2865 42.0106C36.6588 42.0106 36.1791 41.7008 36.1791 40.9016V40.9061Z" fill="#292C2D"/>
<path d="M38.7412 40.8096V40.7961C38.7412 39.97 39.4227 39.53 40.4135 39.53C40.9112 39.53 41.2699 39.5974 41.6196 39.6962V39.5615C41.6196 38.8566 41.1892 38.4929 40.4539 38.4929C39.9921 38.4929 39.6289 38.6142 39.2658 38.7803L39.0909 38.3044C39.5213 38.1068 39.9473 37.9766 40.5122 37.9766C41.0771 37.9766 41.4896 38.1203 41.7765 38.4076C42.041 38.6725 42.18 39.0541 42.18 39.5525V41.95H41.6196V41.3573C41.3461 41.712 40.8933 42.0308 40.2028 42.0308C39.4765 42.0308 38.7412 41.6132 38.7412 40.8096ZM41.6241 40.5043V40.1272C41.3371 40.0419 40.9515 39.9611 40.4718 39.9611C39.7365 39.9611 39.3285 40.2798 39.3285 40.7737V40.7872C39.3285 41.281 39.7814 41.5684 40.3149 41.5684C41.0323 41.5684 41.6241 41.1284 41.6241 40.5088V40.5043Z" fill="#292C2D"/>
<path d="M45.4425 41.1763L45.8146 40.7363C46.3661 41.2346 46.8996 41.486 47.6304 41.486C48.3612 41.486 48.8095 41.1089 48.8095 40.5836V40.5701C48.8095 40.0763 48.545 39.7979 47.4331 39.56C46.2136 39.2951 45.6532 38.9 45.6532 38.029V38.0155C45.6532 37.1805 46.3885 36.5654 47.3928 36.5654C48.1639 36.5654 48.7199 36.7854 49.2579 37.2164L48.9082 37.6788C48.415 37.2747 47.9218 37.1041 47.3793 37.1041C46.6889 37.1041 46.2495 37.4813 46.2495 37.9617V37.9751C46.2495 38.478 46.523 38.7563 47.6887 39.0077C48.8678 39.2637 49.4148 39.6992 49.4148 40.5073V40.5208C49.4148 41.4322 48.6571 42.0203 47.6035 42.0203C46.7606 42.0203 46.0746 41.7419 45.438 41.1718L45.4425 41.1763Z" fill="#292C2D"/>
<path d="M50.2908 40.0009V39.9875C50.2908 38.8785 51.1561 37.9402 52.2993 37.9402C53.0436 37.9402 53.5054 38.25 53.8686 38.6361L53.483 39.0446C53.1736 38.7169 52.8239 38.452 52.2949 38.452C51.5013 38.452 50.896 39.1255 50.896 39.9695V39.983C50.896 40.8315 51.5192 41.5095 52.3352 41.5095C52.8329 41.5095 53.2229 41.258 53.5323 40.9258L53.9044 41.276C53.5099 41.716 53.0436 42.0348 52.3083 42.0348C51.165 42.0348 50.2997 41.1009 50.2997 40.0009H50.2908Z" fill="#292C2D"/>
<path d="M54.8706 36.5107H55.5372V37.1573H54.8706V36.5107ZM54.9109 38.0148H55.4925V41.9343H54.9109V38.0148Z" fill="#292C2D"/>
<path d="M56.6096 39.992V39.9785C56.6096 38.8471 57.4031 37.9402 58.4881 37.9402C59.6448 37.9402 60.3129 38.8651 60.3129 40.0099C60.3129 40.0862 60.3129 40.1311 60.3039 40.1985H57.1969C57.2821 41.047 57.8784 41.5274 58.5733 41.5274C59.1113 41.5274 59.4879 41.3074 59.8062 40.9752L60.1694 41.3029C59.7749 41.7429 59.2996 42.0392 58.5554 42.0392C57.4793 42.0392 56.6006 41.2132 56.6006 40.0009L56.6096 39.992ZM59.7211 39.763C59.6628 39.0491 59.2503 38.4296 58.4702 38.4296C57.7887 38.4296 57.2731 38.9997 57.1969 39.763H59.7166H59.7211Z" fill="#292C2D"/>
<path d="M61.326 38.0164H61.9089V38.6988C62.1644 38.2723 62.5769 37.9311 63.2494 37.9311C64.1954 37.9311 64.7469 38.5686 64.7469 39.5025V41.9359H64.164V39.6461C64.164 38.9188 63.7695 38.4654 63.079 38.4654C62.3886 38.4654 61.9044 38.9592 61.9044 39.6955V41.9404H61.3215V38.0209L61.326 38.0164Z" fill="#292C2D"/>
<path d="M65.751 40.0009V39.9875C65.751 38.8785 66.6163 37.9402 67.7596 37.9402C68.5038 37.9402 68.9656 38.25 69.3288 38.6361L68.9432 39.0446C68.6338 38.7169 68.2841 38.452 67.7551 38.452C66.9615 38.452 66.3562 39.1255 66.3562 39.9695V39.983C66.3562 40.8315 66.9794 41.5095 67.7954 41.5095C68.2931 41.5095 68.6831 41.258 68.9925 40.9258L69.3646 41.276C68.9701 41.716 68.4993 42.0348 67.7685 42.0348C66.6252 42.0348 65.7599 41.1009 65.7599 40.0009H65.751Z" fill="#292C2D"/>
<path d="M69.9618 39.992V39.9785C69.9618 38.8471 70.7554 37.9402 71.8404 37.9402C72.9971 37.9402 73.6652 38.8651 73.6652 40.0099C73.6652 40.0862 73.6652 40.1311 73.6562 40.1985H70.5492C70.6344 41.047 71.2307 41.5274 71.9256 41.5274C72.4636 41.5274 72.8402 41.3074 73.1585 40.9752L73.5217 41.3029C73.1272 41.7429 72.6519 42.0392 71.9077 42.0392C70.8316 42.0392 69.9529 41.2132 69.9529 40.0009L69.9618 39.992ZM73.0734 39.763C73.0151 39.0491 72.6026 38.4296 71.8225 38.4296C71.141 38.4296 70.6254 38.9997 70.5492 39.763H73.0689H73.0734Z" fill="#292C2D"/>
<path d="M77.4767 39.7498H75.9075V39.2021H77.4767V37.6397H78.0461V39.2021H79.6153V39.7498H78.0461V41.3123H77.4767V39.7498Z" fill="#292C2D"/>
<path d="M83.8188 36.5927H84.3792L86.7958 41.9398H86.1501L85.5269 40.5391H82.6396L82.0119 41.9398H81.3977L83.8143 36.5927H83.8188ZM85.2983 40.0003L84.0922 37.293L82.8817 40.0003H85.2983Z" fill="#292C2D"/>
<path d="M87.894 36.6382H88.4891V41.945H87.894V36.6382Z" fill="#292C2D"/>
<path d="M92.3145 36.6382H92.9108V41.3927H95.8967V41.945H92.3145V36.6382Z" fill="#292C2D"/>
<path d="M96.5757 40.8096V40.7961C96.5757 39.97 97.2572 39.53 98.248 39.53C98.7457 39.53 99.1043 39.5974 99.4541 39.6962V39.5615C99.4541 38.8566 99.0236 38.4929 98.2884 38.4929C97.8266 38.4929 97.4634 38.6142 97.1003 38.7803L96.9254 38.3044C97.3558 38.1068 97.7817 37.9766 98.3466 37.9766C98.9116 37.9766 99.324 38.1203 99.611 38.4076C99.8755 38.6725 100.014 39.0541 100.014 39.5525V41.95H99.4541V41.3573C99.1806 41.712 98.7277 42.0308 98.0373 42.0308C97.311 42.0308 96.5757 41.6132 96.5757 40.8096ZM99.463 40.5043V40.1272C99.1761 40.0419 98.7905 39.9611 98.3108 39.9611C97.5755 39.9611 97.1675 40.2798 97.1675 40.7737V40.7872C97.1675 41.281 97.6203 41.5684 98.1539 41.5684C98.8712 41.5684 99.463 41.1284 99.463 40.5088V40.5043Z" fill="#292C2D"/>
<path d="M101.834 41.1875V41.9372H101.251V36.4015H101.834V38.8035C102.152 38.332 102.614 37.9325 103.331 37.9325C104.268 37.9325 105.201 38.6777 105.201 39.9663V39.9797C105.201 41.2638 104.277 42.0181 103.331 42.0181C102.605 42.0181 102.134 41.623 101.834 41.183V41.1875ZM104.609 39.9887V39.9753C104.609 39.0504 103.972 38.4578 103.233 38.4578C102.493 38.4578 101.816 39.0728 101.816 39.9663V39.9797C101.816 40.8911 102.506 41.4973 103.233 41.4973C103.959 41.4973 104.609 40.936 104.609 39.9887Z" fill="#292C2D"/>
</svg>
